<svg width="698" height="1024" viewBox="0 0 698 1024" fill="none" xmlns="http://www.w3.org/2000/svg">
<g clip-path="url(#clip0_208_76)">
<path d="M508.678 714.375C455.843 706.031 369.328 724.812 349.066 764.034L313.99 773.293L319.494 776.862L350.04 768.778C378.093 788.57 389.339 790.147 414.796 779.693C445.075 764.399 482.255 738.931 508.678 714.375ZM473.61 727.692C495.321 721.488 475.506 725.541 475.506 725.541C456.252 732.211 436.679 741.862 421.223 747.473C400.68 756.688 394.3 756.496 366.577 764.576C349.087 768.16 362.913 765.322 372.801 761.851C384.447 757.762 395.04 756.131 409.943 751.147C431.941 744.616 463.807 730.493 473.61 727.692Z" fill="#56614D" fill-opacity="0.74"/>
</g>
<g clip-path="url(#clip1_208_76)">
<path d="M404.771 840.095C371.138 806.452 305.385 781.379 278.521 807.727L251.321 799.084L253.936 805.086L277.63 812.595C290.431 844.671 297.655 851.648 318.625 854.466C344.509 855.172 378.494 849.851 404.771 840.095ZM376.241 835.21C393.233 840.123 378.255 834.151 378.255 834.151C362.802 830.874 346.147 830.2 333.658 827.809C316.479 826.255 312.149 822.947 290.401 816.82C277.177 811.555 287.632 815.713 295.583 817.353C304.948 819.284 312.779 822.972 324.681 825.673C341.979 830.424 368.569 832.992 376.241 835.21Z" fill="#56614D" fill-opacity="0.74"/>
</g>
<g clip-path="url(#clip2_208_76)">
<path d="M358.084 628.009C366.492 666.478 348.303 735.533 309.742 758.215L300.748 786.519L297.213 783.016L305.065 758.363C285.471 740.808 283.877 732.583 294.083 711.343C309.039 685.544 333.991 652.616 358.084 628.009ZM345.093 657.065C351.125 639.458 347.204 655.227 347.204 655.227C340.704 671.061 331.268 687.694 325.796 700.452C316.793 717.737 317.005 722.535 309.146 745.049C305.678 758.97 308.424 747.964 311.807 739.824C315.793 730.237 317.362 721.907 322.218 709.684C328.572 691.797 342.368 665.016 345.093 657.065Z" fill="#56614D" fill-opacity="0.74"/>
</g>
<g clip-path="url(#clip3_208_76)">
<path d="M277.213 641.534C290.03 687.556 274.012 767.962 230.541 792.209L222.171 825.064L217.757 820.69L225.069 792.075C200.742 770.028 198.241 760.201 208.575 735.776C224.128 706.278 250.855 669.018 277.213 641.534ZM264.214 675.012C269.934 654.603 266.549 672.98 266.549 672.98C260.144 691.262 250.358 710.293 244.923 725.008C235.696 744.84 236.313 750.524 228.829 776.61C225.833 792.832 228.207 780.008 231.549 770.612C235.485 759.545 236.684 749.805 241.438 735.682C247.513 714.964 261.631 684.228 264.214 675.012Z" fill="#56614D" fill-opacity="0.74"/>
</g>
<g clip-path="url(#clip4_208_76)">
<path d="M196.596 704.539C207.082 742.194 193.977 807.98 158.41 827.819L151.561 854.7L147.95 851.121L153.932 827.709C134.029 809.67 131.982 801.63 140.437 781.646C153.163 757.511 175.03 727.026 196.596 704.539ZM185.96 731.93C190.64 715.232 187.87 730.267 187.87 730.267C182.63 745.225 174.624 760.796 170.177 772.836C162.628 789.062 163.132 793.713 157.009 815.056C154.558 828.329 156.5 817.836 159.234 810.148C162.455 801.094 163.436 793.124 167.325 781.569C172.296 764.618 183.847 739.47 185.96 731.93Z" fill="#56614D" fill-opacity="0.74"/>
</g>
<g clip-path="url(#clip5_208_76)">
<path d="M107.848 691.403C125.374 740.001 116.77 821.713 74.7162 843.139L69.3365 876.375L64.4069 871.49L69.1146 842.545C42.1468 817.751 38.6448 807.394 46.8421 783.027C59.8811 753.855 83.5811 717.596 107.848 691.403ZM97.8013 724.898C101.675 704.296 99.9896 722.993 99.9896 722.993C95.2122 741.342 87.0542 760.184 82.9228 774.93C75.4126 794.644 76.5908 800.566 71.4637 826.886C69.9685 843.391 71.1558 830.343 73.6623 820.917C76.6148 809.815 76.9 799.854 80.3931 785.664C84.5994 764.771 96.0523 734.202 97.8013 724.898Z" fill="#56614D" fill-opacity="0.74"/>
</g>
<g clip-path="url(#clip6_208_76)">
<path d="M321.174 878.675C293.004 844.899 234.22 817.347 206.867 840.683L182.393 830.92L184.274 836.748L205.596 845.233C214.561 876.307 220.635 883.327 239.854 887.218C263.83 889.401 295.879 886.359 321.174 878.675ZM295.121 872.387C310.454 878.025 297.088 871.503 297.088 871.503C283.034 867.5 267.628 865.888 256.246 862.896C240.433 860.422 236.713 857.041 217.072 849.976C205.27 844.224 214.601 848.767 221.836 850.782C230.358 853.157 237.295 857.102 248.103 860.351C263.736 865.856 288.198 869.84 295.121 872.387Z" fill="#56614D" fill-opacity="0.74"/>
</g>
<g clip-path="url(#clip7_208_76)">
<path d="M263.443 933.691C225.65 884.813 148.522 842.925 114.097 874.061L82.0536 859.012L84.7222 867.278L112.637 880.36C125.485 924.374 133.623 934.544 158.633 941.076C189.725 945.481 231.045 943.027 263.443 933.691ZM229.5 923.42C249.556 932.179 232.008 922.293 232.008 922.293C213.673 915.898 193.685 912.774 178.846 907.943C158.298 903.588 153.351 898.645 127.667 887.646C112.174 878.928 124.424 885.815 133.861 889.044C144.977 892.848 154.107 898.762 168.214 903.921C188.651 912.508 220.445 919.465 229.5 923.42Z" fill="#56614D" fill-opacity="0.74"/>
</g>
<g clip-path="url(#clip8_208_76)">
<path d="M166.209 984.326C143.029 926.18 82.5224 868.738 44.1458 895.826L18.4709 874.453L19.0091 883.653L41.3822 902.243C43.012 951 48.0841 963.146 69.3131 974.311C96.5525 984.261 134.648 988.693 166.209 984.326ZM137.718 967.684C153.938 980.363 140.253 966.918 140.253 966.918C125.056 957.033 107.612 950.327 95.2344 942.692C77.5621 934.588 74.1958 928.517 53.3739 912.51C41.289 900.65 50.8456 910.02 58.6815 915.042C67.9117 920.958 74.8555 928.769 86.4941 936.628C103.1 949.19 130.394 961.959 137.718 967.684Z" fill="#56614D" fill-opacity="0.74"/>
</g>
<g clip-path="url(#clip9_208_76)">
<path d="M19.0352 706.115C38.3757 759.33 34.8777 841.129 -3.68873 854.558L-6.8901 887.452L-11.8311 881.464L-9.02161 852.822C-35.9417 822.039 -39.843 810.745 -33.4723 787.487C-22.7943 760.292 -2.43342 728.001 19.0352 706.115ZM11.4338 738.333C13.9278 718.051 13.3958 736.826 13.3958 736.826C9.91855 754.622 3.27116 772.239 0.200399 786.481C-5.7845 805.122 -4.3335 811.413 -7.68881 837.286C-8.16579 853.859 -7.78373 840.759 -5.94791 831.628C-3.78546 820.873 -4.08146 810.748 -1.58294 796.945C1.20949 776.434 10.3077 747.491 11.4338 738.333Z" fill="#56614D" fill-opacity="0.74"/>
</g>
<g clip-path="url(#clip10_208_76)">
<path d="M56.7773 1001.63C51.2833 942.062 15.711 878.196 -21.146 899.389L-36.9156 875.204L-38.5547 884.212L-24.8052 905.253C-34.4714 952.829 -33.1391 965.303 -18.6357 978.979C0.958705 992.278 30.4966 1001.66 56.7773 1001.63ZM37.6858 981.667C47.8337 996.146 39.89 981.261 39.89 981.261C29.9337 969.632 17.4606 960.792 9.25727 951.725C-3.08433 941.497 -4.41622 935.15 -17.5037 916.825C-24.5213 903.693 -18.97 914.069 -13.8193 919.993C-7.75224 926.97 -3.94425 935.483 3.61614 944.669C14.0994 959.086 33.1035 975.13 37.6858 981.667Z" fill="#56614D" fill-opacity="0.74"/>
</g>
<path d="M-83.1797 874.326C40.6441 891.316 129.932 866.117 322.605 770.924" stroke="#56614D" stroke-opacity="0.99"/>
<g clip-path="url(#clip11_208_76)">
<path d="M217.104 490.634C264.542 465.921 322.927 399.372 315.892 355.79L338.585 327.487L332.038 327.891L312.287 352.555C277.964 353.327 267.985 358.747 253.736 382.29C238.488 412.593 223.743 455.179 217.104 490.634ZM237.377 459.073C223.612 476.972 237.131 461.93 237.131 461.93C248.645 445.117 258.641 425.718 267.729 412.015C278.765 392.391 284.008 388.751 301.491 365.768C313.421 352.485 303.993 362.989 298.108 371.66C291.177 381.873 283.631 389.484 274.614 402.354C260.812 420.687 243.592 450.991 237.377 459.073Z" fill="#56614D" fill-opacity="0.74"/>
</g>
<g clip-path="url(#clip12_208_76)">
<path d="M225.871 327.769C272.918 334.815 340.691 315.869 346.619 278.711L373.627 269.484L367.955 266.213L344.441 274.267C315.074 256.092 305.117 254.779 286.582 264.984C265.353 279.81 241.195 304.299 225.871 327.769ZM251.713 314.729C235.131 320.885 250.724 316.779 250.724 316.779C265.097 310.223 278.886 300.86 290.35 295.355C305.084 286.389 310.532 286.473 331.661 278.465C345.423 274.834 334.545 277.708 327.178 281.119C318.5 285.135 310.012 286.827 298.837 291.734C282.105 298.202 259.2 311.95 251.713 314.729Z" fill="#56614D" fill-opacity="0.74"/>
</g>
<g clip-path="url(#clip13_208_76)">
<path d="M389.535 470.511C359.898 444.583 333.454 378.25 350.967 337.083L341.365 308.979L346.29 309.693L354.638 334.183C380.831 336.643 387.004 342.308 391.431 365.453C394.749 395.089 394.27 436.4 389.535 470.511ZM382.7 439.425C388.321 457.168 382.095 442.159 382.095 442.159C377.905 425.563 375.6 406.58 372.412 393.069C369.37 373.818 366.346 370.087 359.276 347.313C353.785 334.059 358.123 344.54 360.243 353.096C362.74 363.175 366.433 370.805 369.797 383.518C375.326 401.678 380.162 431.413 382.7 439.425Z" fill="#56614D" fill-opacity="0.74"/>
</g>
<g clip-path="url(#clip14_208_76)">
<path d="M446.504 411.545C408.83 382.167 373.891 307.999 394.419 262.654L381.61 231.262L387.761 232.154L398.899 259.508C431.568 262.765 439.423 269.178 445.641 294.96C450.678 327.925 451.35 373.774 446.504 411.545ZM437.045 376.899C444.584 396.709 436.377 379.922 436.377 379.922C430.653 361.415 427.203 340.296 422.822 325.233C418.446 303.803 414.569 299.599 405.073 274.177C397.834 259.353 403.553 271.075 406.453 280.616C409.87 291.854 414.699 300.398 419.275 314.579C426.712 334.849 433.641 367.954 437.045 376.899Z" fill="#56614D" fill-opacity="0.74"/>
</g>
<g clip-path="url(#clip15_208_76)">
<path d="M473.852 312.947C443.028 288.911 414.441 228.228 431.237 191.127L420.757 165.444L425.789 166.173L434.902 188.553C461.631 191.219 468.058 196.466 473.145 217.56C477.267 244.531 477.817 282.044 473.852 312.947ZM466.113 284.601C472.28 300.809 465.566 287.074 465.566 287.074C460.883 271.932 458.06 254.653 454.475 242.329C450.895 224.795 447.723 221.356 439.953 200.555C434.031 188.427 438.71 198.018 441.083 205.824C443.879 215.019 447.829 222.009 451.574 233.612C457.658 250.196 463.327 277.282 466.113 284.601Z" fill="#56614D" fill-opacity="0.74"/>
</g>
<g clip-path="url(#clip16_208_76)">
<path d="M553.01 270.731C510.018 242.083 468.342 171.275 489.409 129.039L473.968 99.1197L480.837 100.115L494.266 126.186C530.691 130.081 539.666 136.325 547.567 160.79C554.433 191.997 556.942 235.242 553.01 270.731ZM541.167 237.828C550.305 256.695 540.541 240.661 540.541 240.661C533.469 223.068 528.823 203.069 523.375 188.757C517.689 168.441 513.22 164.381 501.69 140.172C493.076 126.013 499.881 137.21 503.471 146.278C507.7 156.96 513.395 165.137 519.025 178.623C528.068 197.921 537.041 229.308 541.167 237.828Z" fill="#56614D" fill-opacity="0.74"/>
</g>
<g clip-path="url(#clip17_208_76)">
<path d="M270.139 247.037C312.872 257.438 376.517 244.63 384.629 209.603L410.111 202.897L405.133 199.331L382.945 205.189C357.258 185.538 348.201 183.507 330.435 191.807C309.861 204.311 285.904 225.816 270.139 247.037ZM294.823 236.599C279.143 241.184 293.768 238.479 293.768 238.479C307.446 233.339 320.791 225.473 331.721 221.109C345.905 213.695 350.907 214.2 370.899 208.2C383.807 205.806 373.604 207.703 366.589 210.385C358.325 213.545 350.402 214.498 339.78 218.313C323.94 223.185 301.903 234.528 294.823 236.599Z" fill="#56614D" fill-opacity="0.74"/>
</g>
<g clip-path="url(#clip18_208_76)">
<path d="M283.83 168.476C343.281 185.296 430.199 173.104 439.36 127.6L474.07 120.643L467.009 115.584L436.787 121.668C400.282 93.9235 387.692 90.5867 363.701 100.209C336.084 115.157 304.325 141.703 283.83 168.476ZM317.227 156.548C295.895 161.433 315.881 158.945 315.881 158.945C334.425 153.182 352.352 143.808 367.154 138.866C386.264 130.148 393.181 131.18 420.37 124.748C438.011 122.544 424.067 124.292 414.559 127.308C403.36 130.861 392.503 131.535 378.094 135.777C356.557 141.027 326.859 154.342 317.227 156.548Z" fill="#56614D" fill-opacity="0.74"/>
</g>
<g clip-path="url(#clip19_208_76)">
<path d="M331.891 69.9417C385.105 102.904 467.91 113.101 482.654 68.5004L516.006 70.4148L510.102 63.3385L481.06 61.6981C450.754 23.4692 439.453 16.7212 415.746 20.3699C387.93 28.5692 354.667 47.6613 331.891 69.9417ZM364.693 66.3775C344.112 65.8305 363.11 68.5009 363.11 68.5009C381.207 67.4109 399.219 62.4282 413.71 61.2052C432.737 57.2102 439.054 60.0896 465.313 60.5757C482.082 62.9238 468.827 61.0738 459.54 61.696C448.601 62.429 438.374 60.2789 424.344 60.8826C403.523 60.6586 373.985 66.6245 364.693 66.3775Z" fill="#56614D" fill-opacity="0.74"/>
</g>
<g clip-path="url(#clip20_208_76)">
<path d="M615.662 206.087C568.467 174.807 522.633 106.964 545.652 73.2326L528.665 44.884L536.198 46.7594L550.973 71.4572C590.921 80.1952 600.774 86.9553 609.484 109.442C617.072 137.656 619.906 175.725 615.662 206.087ZM602.614 175.665C612.67 193.454 601.932 178.043 601.932 178.043C594.145 161.669 589.012 143.552 583.011 130.276C576.737 111.731 571.829 107.535 559.14 84.7393C549.668 71.1324 557.151 81.8913 561.105 90.3236C565.763 100.256 572.022 108.22 578.222 120.803C588.174 138.953 598.073 167.633 602.614 175.665Z" fill="#56614D" fill-opacity="0.74"/>
</g>
<g clip-path="url(#clip21_208_76)">
<path d="M409.576 -9.04938C449.42 35.5753 515.999 65.7651 533.026 26.8086L560.087 36.8741L556.048 28.6574L532.481 19.9179C511.959 -24.0793 503.47 -33.3152 483.676 -35.6854C460.015 -34.7241 430.686 -24.7041 409.576 -9.04938ZM436.798 -4.35227C420.029 -9.9575 435.267 -2.71504 435.267 -2.71504C450.187 0.713231 465.473 0.40273 477.46 2.81375C493.464 3.69722 498.31 8.00746 519.729 14.957C533.181 21.3412 522.547 16.3005 514.883 14.6013C505.856 12.5997 497.732 8.02024 486.191 5.13168C469.189 -0.224466 444.37 -1.82124 436.798 -4.35227Z" fill="#56614D" fill-opacity="0.74"/>
</g>
<path d="M597.803 10.0671C488.15 70.0453 431.353 143.403 333.064 334.515" stroke="#56614D" stroke-opacity="0.99"/>
<defs>
<clipPath id="clip0_208_76">
<rect width="113.028" height="170.117" fill="white" transform="matrix(-0.839055 -0.544046 -0.661257 0.750159 511.861 709.679)"/>
</clipPath>
<clipPath id="clip1_208_76">
<rect width="112.815" height="135.006" fill="white" transform="matrix(-0.399388 -0.916782 -0.884913 0.465757 408.51 837.312)"/>
</clipPath>
<clipPath id="clip2_208_76">
<rect width="85.7492" height="166.122" fill="white" transform="matrix(0.710308 0.703891 -0.754243 0.656595 362.697 624.719)"/>
</clipPath>
<clipPath id="clip3_208_76">
<rect width="107.082" height="183.67" fill="white" transform="matrix(0.710308 0.703891 -0.754243 0.656595 282.371 637.952)"/>
</clipPath>
<clipPath id="clip4_208_76">
<rect width="87.6129" height="150.276" fill="white" transform="matrix(0.710308 0.703891 -0.754243 0.656595 200.814 701.609)"/>
</clipPath>
<clipPath id="clip5_208_76">
<rect width="119.584" height="172.145" fill="white" transform="matrix(0.710308 0.703891 -0.754243 0.656595 112.77 688.133)"/>
</clipPath>
<clipPath id="clip6_208_76">
<rect width="105.521" height="127.938" fill="white" transform="matrix(-0.307228 -0.951635 -0.912089 0.409992 324.898 876.263)"/>
</clipPath>
<clipPath id="clip7_208_76">
<rect width="149.667" height="163.112" fill="white" transform="matrix(-0.307228 -0.951635 -0.912089 0.409992 268.164 930.524)"/>
</clipPath>
<clipPath id="clip8_208_76">
<rect width="158.796" height="157.123" fill="white" transform="matrix(-0.0584023 -0.998293 -0.957244 0.289282 171.219 981.777)"/>
</clipPath>
<clipPath id="clip9_208_76">
<rect width="133.764" height="146.765" fill="white" transform="matrix(0.636472 0.771299 -0.793162 0.60901 23.5059 703.764)"/>
</clipPath>
<clipPath id="clip10_208_76">
<rect width="157.764" height="132.986" fill="white" transform="matrix(0.179013 -0.983846 -0.98346 0.181125 61.3672 999.825)"/>
</clipPath>
<clipPath id="clip11_208_76">
<rect width="113.028" height="170.117" fill="white" transform="matrix(0.998101 -0.0615971 0.085501 -0.996338 217.336 496.302)"/>
</clipPath>
<clipPath id="clip12_208_76">
<rect width="112.815" height="135.006" fill="white" transform="matrix(0.866295 0.499532 0.434442 -0.9007 224.521 332.229)"/>
</clipPath>
<clipPath id="clip13_208_76">
<rect width="85.7492" height="166.122" fill="white" transform="matrix(-0.989654 -0.143476 0.2159 -0.976415 387.781 475.9)"/>
</clipPath>
<clipPath id="clip14_208_76">
<rect width="107.082" height="183.67" fill="white" transform="matrix(-0.989654 -0.143476 0.2159 -0.976415 444.488 417.491)"/>
</clipPath>
<clipPath id="clip15_208_76">
<rect width="87.6129" height="150.276" fill="white" transform="matrix(-0.989654 -0.143476 0.2159 -0.976415 472.201 317.813)"/>
</clipPath>
<clipPath id="clip16_208_76">
<rect width="119.584" height="172.145" fill="white" transform="matrix(-0.989654 -0.143476 0.2159 -0.976415 550.998 276.287)"/>
</clipPath>
<clipPath id="clip17_208_76">
<rect width="105.521" height="127.938" fill="white" transform="matrix(0.812931 0.58236 0.489454 -0.872029 268.578 251.192)"/>
</clipPath>
<clipPath id="clip18_208_76">
<rect width="149.667" height="163.112" fill="white" transform="matrix(0.812931 0.58236 0.489454 -0.872029 281.92 173.829)"/>
</clipPath>
<clipPath id="clip19_208_76">
<rect width="158.796" height="157.123" fill="white" transform="matrix(0.640634 0.767846 0.597542 -0.801838 329.379 74.9702)"/>
</clipPath>
<clipPath id="clip20_208_76">
<rect width="133.764" height="146.765" fill="white" transform="matrix(-0.970381 -0.241579 0.275486 -0.961304 613.467 210.636)"/>
</clipPath>
<clipPath id="clip21_208_76">
<rect width="157.764" height="132.986" fill="white" transform="matrix(0.441172 0.897422 0.682938 -0.730476 406.961 -4.86707)"/>
</clipPath>
</defs>
</svg>
