<svg width="421" height="215" viewBox="0 0 421 215" fill="none" xmlns="http://www.w3.org/2000/svg">
<path d="M45.3984 55.791H47.5957C51.7624 55.791 54.7897 54.9284 56.6777 53.2031C58.5658 51.4779 59.5098 48.7109 59.5098 44.9023C59.5098 41.3867 58.5658 38.8314 56.6777 37.2363C54.7897 35.6087 51.7624 34.7949 47.5957 34.7949H45.3984V55.791ZM30.0176 95V23.5156H47.5957C56.9707 23.5156 63.888 25.306 68.3477 28.8867C72.8398 32.4674 75.0859 38.0013 75.0859 45.4883C75.0859 52.4219 72.8236 57.8581 68.2988 61.7969C63.8066 65.7357 57.5729 67.7051 49.5977 67.7051H45.3984V95H30.0176ZM121.15 70.9766C121.15 66.6797 120.06 63.278 117.879 60.7715C115.73 58.265 112.817 57.0117 109.139 57.0117C105.363 57.0117 102.384 58.265 100.203 60.7715C98.0547 63.2454 96.9805 66.6471 96.9805 70.9766C96.9805 75.306 98.0384 78.6751 100.154 81.084C102.303 83.4928 105.265 84.6973 109.041 84.6973C112.882 84.6973 115.861 83.4928 117.977 81.084C120.092 78.6751 121.15 75.306 121.15 70.9766ZM133.846 95H120.369L120.564 88.1152C118.676 91.1426 116.398 93.3724 113.729 94.8047C111.092 96.2044 107.869 96.9043 104.061 96.9043C97.7129 96.9043 92.5859 94.5443 88.6797 89.8242C84.806 85.1042 82.8691 78.8704 82.8691 71.123C82.8691 63.0501 84.7734 56.7676 88.582 52.2754C92.4232 47.7507 97.7454 45.4883 104.549 45.4883C108.097 45.4883 111.206 46.2858 113.875 47.8809C116.577 49.4759 118.839 51.8522 120.662 55.0098V47.0996H133.846V95ZM153.689 95V57.9883H147V47.0996H153.689V31.1816H167.605V47.0996H174.295V57.9883H167.605V95H153.689ZM220.945 66.0938C220.555 63.0664 219.448 60.7878 217.625 59.2578C215.835 57.6953 213.377 56.9141 210.252 56.9141C207.127 56.9141 204.62 57.6953 202.732 59.2578C200.877 60.7878 199.689 63.0664 199.168 66.0938H220.945ZM234.715 74.4922H198.729C199.282 77.9427 200.535 80.5306 202.488 82.2559C204.441 83.9486 207.094 84.7949 210.447 84.7949C212.986 84.7949 215.167 84.3066 216.99 83.3301C218.846 82.3535 220.392 80.8724 221.629 78.8867L232.859 84.502C230.255 88.7012 227.098 91.8262 223.387 93.877C219.676 95.8952 215.265 96.9043 210.154 96.9043C202.407 96.9043 196.271 94.5931 191.746 89.9707C187.221 85.3483 184.959 79.1309 184.959 71.3184C184.959 63.7988 187.319 57.6139 192.039 52.7637C196.792 47.9134 202.863 45.4883 210.252 45.4883C217.869 45.4883 223.891 47.7669 228.318 52.3242C232.745 56.849 234.959 63.0339 234.959 70.8789C234.959 71.3021 234.943 71.7741 234.91 72.2949C234.878 72.7832 234.812 73.5156 234.715 74.4922ZM250.799 95V19.3164H264.666V95H250.799Z" fill="#2D3945"/>
<path d="M77.6777 193H60.0508L41.252 159.602V193H25.9688V121.516H47.8438C56.5352 121.516 63.0456 123.208 67.375 126.594C71.7044 129.947 73.8691 135.008 73.8691 141.779C73.8691 146.695 72.388 150.894 69.4258 154.377C66.4635 157.86 62.6387 159.895 57.9512 160.48L77.6777 193ZM41.252 151.984H43.5469C49.7318 151.984 53.8171 151.317 55.8027 149.982C57.7884 148.615 58.7812 146.255 58.7812 142.902C58.7812 139.387 57.707 136.896 55.5586 135.432C53.4427 133.934 49.4388 133.186 43.5469 133.186H41.252V151.984ZM121.643 164.094C121.252 161.066 120.145 158.788 118.322 157.258C116.532 155.695 114.074 154.914 110.949 154.914C107.824 154.914 105.318 155.695 103.43 157.258C101.574 158.788 100.386 161.066 99.8652 164.094H121.643ZM135.412 172.492H99.4258C99.9792 175.943 101.232 178.531 103.186 180.256C105.139 181.949 107.792 182.795 111.145 182.795C113.684 182.795 115.865 182.307 117.688 181.33C119.543 180.354 121.089 178.872 122.326 176.887L133.557 182.502C130.952 186.701 127.795 189.826 124.084 191.877C120.373 193.895 115.962 194.904 110.852 194.904C103.104 194.904 96.9681 192.593 92.4434 187.971C87.9186 183.348 85.6562 177.131 85.6562 169.318C85.6562 161.799 88.0163 155.614 92.7363 150.764C97.4889 145.913 103.56 143.488 110.949 143.488C118.566 143.488 124.589 145.767 129.016 150.324C133.443 154.849 135.656 161.034 135.656 168.879C135.656 169.302 135.64 169.774 135.607 170.295C135.575 170.783 135.51 171.516 135.412 172.492ZM186.262 191.584C184.374 192.723 182.388 193.553 180.305 194.074C178.221 194.628 175.943 194.904 173.469 194.904C165.917 194.904 159.764 192.512 155.012 187.727C150.259 182.909 147.883 176.659 147.883 168.977C147.883 161.457 150.275 155.337 155.061 150.617C159.846 145.865 166.047 143.488 173.664 143.488C176.203 143.488 178.482 143.732 180.5 144.221C182.518 144.709 184.439 145.474 186.262 146.516L186.164 160.48C184.699 158.983 183.007 157.827 181.086 157.014C179.165 156.2 177.131 155.793 174.982 155.793C171.076 155.793 167.951 156.997 165.607 159.406C163.264 161.783 162.092 164.94 162.092 168.879C162.092 172.915 163.28 176.138 165.656 178.547C168.065 180.923 171.304 182.111 175.373 182.111C177.619 182.111 179.605 181.704 181.33 180.891C183.088 180.077 184.699 178.807 186.164 177.082L186.262 191.584ZM201.076 125.422C201.076 123.208 201.874 121.304 203.469 119.709C205.064 118.114 206.968 117.316 209.182 117.316C211.428 117.316 213.348 118.114 214.943 119.709C216.571 121.271 217.385 123.176 217.385 125.422C217.385 127.668 216.571 129.589 214.943 131.184C213.348 132.779 211.428 133.576 209.182 133.576C206.968 133.576 205.064 132.762 203.469 131.135C201.874 129.507 201.076 127.603 201.076 125.422ZM202.297 193V145.1H216.164V193H202.297ZM247.971 168.977C247.971 173.306 249.029 176.675 251.145 179.084C253.293 181.493 256.271 182.697 260.08 182.697C263.889 182.697 266.851 181.493 268.967 179.084C271.115 176.675 272.189 173.306 272.189 168.977C272.189 164.647 271.099 161.245 268.918 158.771C266.77 156.265 263.791 155.012 259.982 155.012C256.304 155.012 253.374 156.265 251.193 158.771C249.045 161.278 247.971 164.68 247.971 168.977ZM235.275 214.777V145.1H248.605V153.01C250.428 149.82 252.658 147.443 255.295 145.881C257.964 144.286 261.057 143.488 264.572 143.488C271.376 143.488 276.698 145.751 280.539 150.275C284.38 154.768 286.301 161.05 286.301 169.123C286.301 176.903 284.364 183.153 280.49 187.873C276.617 192.561 271.522 194.904 265.207 194.904C261.398 194.904 258.16 194.204 255.49 192.805C252.854 191.372 250.591 189.143 248.703 186.115C248.866 187.32 248.98 188.638 249.045 190.07C249.143 191.47 249.191 193.081 249.191 194.904V214.777H235.275ZM334.904 164.094C334.514 161.066 333.407 158.788 331.584 157.258C329.794 155.695 327.336 154.914 324.211 154.914C321.086 154.914 318.579 155.695 316.691 157.258C314.836 158.788 313.648 161.066 313.127 164.094H334.904ZM348.674 172.492H312.688C313.241 175.943 314.494 178.531 316.447 180.256C318.4 181.949 321.053 182.795 324.406 182.795C326.945 182.795 329.126 182.307 330.949 181.33C332.805 180.354 334.351 178.872 335.588 176.887L346.818 182.502C344.214 186.701 341.057 189.826 337.346 191.877C333.635 193.895 329.224 194.904 324.113 194.904C316.366 194.904 310.23 192.593 305.705 187.971C301.18 183.348 298.918 177.131 298.918 169.318C298.918 161.799 301.278 155.614 305.998 150.764C310.751 145.913 316.822 143.488 324.211 143.488C331.828 143.488 337.85 145.767 342.277 150.324C346.704 154.849 348.918 161.034 348.918 168.879C348.918 169.302 348.902 169.774 348.869 170.295C348.837 170.783 348.771 171.516 348.674 172.492ZM359.533 184.602L370.227 179.084C370.585 180.939 371.545 182.404 373.107 183.479C374.67 184.553 376.607 185.09 378.918 185.09C381.197 185.09 382.987 184.683 384.289 183.869C385.591 183.023 386.242 181.867 386.242 180.402C386.242 178.091 383.931 176.154 379.309 174.592C377.876 174.104 376.737 173.697 375.891 173.371C370.259 171.255 366.353 169.123 364.172 166.975C362.023 164.826 360.949 162.173 360.949 159.016C360.949 154.328 362.788 150.536 366.467 147.639C370.145 144.742 374.995 143.293 381.018 143.293C385.314 143.293 389.025 144.156 392.15 145.881C395.308 147.606 397.603 150.048 399.035 153.205L388.83 158.283C388.277 156.493 387.316 155.142 385.949 154.23C384.582 153.286 382.873 152.814 380.822 152.814C378.771 152.814 377.111 153.238 375.842 154.084C374.572 154.93 373.938 156.037 373.938 157.404C373.938 159.781 377.095 161.994 383.41 164.045C384.159 164.273 384.729 164.452 385.119 164.582C390.36 166.307 394.087 168.326 396.301 170.637C398.514 172.915 399.621 175.829 399.621 179.377C399.621 184.13 397.782 187.906 394.104 190.705C390.425 193.505 385.461 194.904 379.211 194.904C374.263 194.904 370.031 193.993 366.516 192.17C363.033 190.314 360.705 187.792 359.533 184.602Z" fill="#2D3945"/>
<g clip-path="url(#clip0_200_4)">
<path d="M372.121 14.8511C362.562 19.8239 352.165 32.3862 355.372 40.0721L351.423 45.3893L352.857 45.239L356.292 40.6058C363.857 40.058 365.859 38.9724 368.12 34.6048C370.346 29.02 371.995 21.2515 372.121 14.8511ZM368.831 20.7201C371.199 17.3646 368.777 20.2079 368.777 20.2079C366.867 23.3429 365.39 26.9209 363.898 29.4725C362.2 33.1031 361.178 33.8147 358.18 38.121C356.044 40.6318 357.732 38.6464 358.705 37.0302C359.852 35.1265 361.233 33.6794 362.741 31.2772C365.1 27.8438 367.762 22.2353 368.831 20.7201Z" fill="#56614D" fill-opacity="0.74"/>
</g>
<g clip-path="url(#clip1_200_4)">
<path d="M376.352 43.992C365.676 43.298 351.399 47.4857 351.495 54.1812L345.869 56.149L347.248 56.6643L352.145 54.9474C359.331 57.8368 361.583 57.9519 365.298 55.911C369.433 53.0141 373.85 48.3595 376.352 43.992ZM371.128 46.6256C374.564 45.33 371.269 46.2484 371.269 46.2484C368.338 47.589 365.641 49.4229 363.314 50.5414C360.393 52.3161 359.185 52.3662 354.813 54.0464C351.906 54.8581 354.204 54.2157 355.705 53.5197C357.473 52.6998 359.287 52.2967 361.573 51.2883C365.03 49.9354 369.577 47.2106 371.128 46.6256Z" fill="#56614D" fill-opacity="0.74"/>
</g>
<g clip-path="url(#clip2_200_4)">
<path d="M334.734 20.4994C342.274 24.7676 350.637 36.2778 348.321 43.8263L351.51 48.7221L350.394 48.6537L347.619 44.3874C341.731 44.2618 340.15 43.3255 338.294 39.252C336.438 34.0082 334.979 26.6374 334.734 20.4994ZM337.424 25.9598C335.508 22.8636 337.454 25.4652 337.454 25.4652C339.01 28.3738 340.239 31.7307 341.456 34.1014C342.858 37.4971 343.669 38.1262 346.096 42.1018C347.812 44.3992 346.456 42.5824 345.663 41.0824C344.728 39.3154 343.622 37.9992 342.396 35.7728C340.485 32.6014 338.289 27.3579 337.424 25.9598Z" fill="#56614D" fill-opacity="0.74"/>
</g>
<g clip-path="url(#clip3_200_4)">
<path d="M324.363 31.6929C333.811 36.4802 344.351 49.2855 341.526 57.6152L345.549 63.0587L344.155 62.9732L340.654 58.2296C333.303 58.0392 331.322 56.9898 328.97 52.4676C326.607 46.6508 324.722 38.4847 324.363 31.6929ZM327.768 37.7565C325.35 34.3149 327.802 37.2097 327.802 37.2097C329.769 40.4407 331.332 44.1647 332.872 46.7978C334.652 50.5662 335.669 51.2692 338.733 55.6881C340.896 58.2444 339.187 56.2229 338.184 54.5567C337.002 52.5939 335.61 51.1284 334.06 48.6548C331.647 45.13 328.86 39.3106 327.768 37.7565Z" fill="#56614D" fill-opacity="0.74"/>
</g>
<g clip-path="url(#clip4_200_4)">
<path d="M322.047 49.598C329.777 53.5149 338.4 63.9919 336.089 70.8071L339.381 75.2609L338.24 75.191L335.376 71.3099C329.361 71.1541 327.741 70.2955 325.816 66.5955C323.883 61.8363 322.34 55.1549 322.047 49.598ZM324.833 54.5592C322.854 51.7433 324.86 54.1117 324.86 54.1117C326.47 56.7553 327.749 59.8022 329.009 61.9565C330.465 65.0398 331.297 65.615 333.804 69.2305C335.574 71.322 334.175 69.668 333.354 68.3047C332.388 66.6988 331.249 65.4997 329.981 63.4759C328.006 60.592 325.726 55.8307 324.833 54.5592Z" fill="#56614D" fill-opacity="0.74"/>
</g>
<g clip-path="url(#clip5_200_4)">
<path d="M306.133 58.0704C316.73 62.6641 328.632 74.7899 325.571 82.5715L330.121 87.7212L328.563 87.6257L324.605 83.1383C316.398 82.8791 314.176 81.8731 311.501 77.6059C308.8 72.1243 306.607 64.4445 306.133 58.0704ZM309.999 63.795C307.263 60.5405 310.031 63.2824 310.031 63.2824C312.261 66.3344 314.047 69.8444 315.794 72.3308C317.822 75.8848 318.965 76.5553 322.432 80.7335C324.874 83.1548 322.945 81.2401 321.807 79.6662C320.467 77.8124 318.897 76.4226 317.141 74.0856C314.409 70.7532 311.235 65.2645 309.999 63.795Z" fill="#56614D" fill-opacity="0.74"/>
</g>
<g clip-path="url(#clip6_200_4)">
<path d="M369.615 58.9142C359.767 57.5705 346.171 60.6145 345.703 66.9563L340.319 68.4563L341.555 69.0327L346.242 67.7231C352.67 70.9196 354.751 71.1734 358.367 69.4812C362.445 67.0061 366.931 62.8859 369.615 58.9142ZM364.549 61.0701C367.845 60.0652 364.712 60.7222 364.712 60.7222C361.88 61.8021 359.225 63.364 356.972 64.2726C354.115 65.764 352.989 65.7336 348.793 67.0422C346.028 67.6233 348.214 67.1632 349.664 66.6012C351.373 65.9392 353.09 65.6745 355.295 64.8674C358.615 63.8096 363.061 61.5238 364.549 61.0701Z" fill="#56614D" fill-opacity="0.74"/>
</g>
<g clip-path="url(#clip7_200_4)">
<path d="M369.561 73.0839C355.77 70.7957 337.001 74.008 336.698 82.23L329.282 83.8853L331.036 84.7027L337.492 83.257C346.62 87.767 349.532 88.2114 354.475 86.2092C360.019 83.2142 366.04 78.102 369.561 73.0839ZM362.623 75.6096C367.158 74.4837 362.83 75.1661 362.83 75.1661C358.946 76.4151 355.335 78.3007 352.247 79.3586C348.349 81.1413 346.78 81.04 341.008 82.5115C337.188 83.1154 340.207 82.637 342.196 81.9857C344.54 81.2186 346.916 80.9686 349.944 80.0401C354.51 78.8467 360.576 76.118 362.623 75.6096Z" fill="#56614D" fill-opacity="0.74"/>
</g>
<g clip-path="url(#clip8_200_4)">
<path d="M362.66 91.2253C349.638 85.9847 330.931 85.1563 329.359 93.2839L321.907 93.3412L323.482 94.5322L329.969 94.4776C338.122 100.931 340.878 101.999 345.985 101.065C351.829 99.271 358.465 95.4696 362.66 91.2253ZM355.538 92.2527C360.112 92.1043 355.807 91.8552 355.807 91.8552C351.845 92.2658 348.049 93.3694 344.889 93.7606C340.83 94.7002 339.324 94.2624 333.496 94.4895C329.697 94.2713 332.699 94.4427 334.73 94.2208C337.123 93.9594 339.467 94.2205 342.548 93.9452C347.163 93.7363 353.472 92.3197 355.538 92.2527Z" fill="#56614D" fill-opacity="0.74"/>
</g>
<g clip-path="url(#clip9_200_4)">
<path d="M294.721 70.344C306.347 75.3568 319.058 86.9043 315.242 93.1931L320.075 98.0441L318.337 97.7998L314.133 93.5732C304.963 92.4928 302.527 91.4053 299.748 87.5003C297.001 82.5611 294.932 75.8079 294.721 70.344ZM298.76 75.6118C295.861 72.5606 298.821 75.1797 298.821 75.1797C301.164 78.0059 302.986 81.1745 304.816 83.4697C306.907 86.701 308.152 87.3903 311.822 91.3028C314.434 93.6155 312.37 91.7868 311.176 90.3307C309.769 88.6156 308.083 87.2705 306.235 85.1013C303.345 81.9844 300.069 76.9896 298.76 75.6118Z" fill="#56614D" fill-opacity="0.74"/>
</g>
<g clip-path="url(#clip10_200_4)">
<path d="M348.465 106.236C337.959 98.7567 322.085 94.1701 319.794 101.319L313.425 99.8477L314.63 101.264L320.175 102.541C326.382 110.14 328.61 111.685 333.079 111.871C338.278 111.417 344.387 109.28 348.465 106.236ZM342.264 105.724C346.187 106.523 342.541 105.414 342.541 105.414C339.11 104.981 335.74 105.219 332.996 104.933C329.422 104.966 328.187 104.256 323.185 103.273C319.967 102.295 322.51 103.067 324.27 103.278C326.343 103.527 328.314 104.247 330.977 104.624C334.941 105.375 340.493 105.364 342.264 105.724Z" fill="#56614D" fill-opacity="0.74"/>
</g>
<path d="M306.096 105.078C328.084 93.0741 337.872 79.317 352.379 44.0702" stroke="#56614D" stroke-opacity="0.99"/>
<defs>
<clipPath id="clip0_200_4">
<rect width="24.8312" height="30.56" fill="white" transform="matrix(-0.994548 0.104282 0.104775 0.994496 371.855 13.8433)"/>
</clipPath>
<clipPath id="clip1_200_4">
<rect width="25.3623" height="23.8943" fill="white" transform="matrix(-0.936715 -0.350092 -0.350323 0.936629 376.48 43.1807)"/>
</clipPath>
<clipPath id="clip2_200_4">
<rect width="19.2776" height="29.4014" fill="white" transform="matrix(0.998127 0.0611717 -0.0609253 0.998142 334.918 19.5177)"/>
</clipPath>
<clipPath id="clip3_200_4">
<rect width="24.0735" height="32.5073" fill="white" transform="matrix(0.998127 0.0611717 -0.0609253 0.998142 324.584 30.6086)"/>
</clipPath>
<clipPath id="clip4_200_4">
<rect width="19.6965" height="26.5968" fill="white" transform="matrix(0.998127 0.0611717 -0.0609253 0.998142 322.229 48.7108)"/>
</clipPath>
<clipPath id="clip5_200_4">
<rect width="26.8841" height="30.4674" fill="white" transform="matrix(0.998127 0.0611717 -0.0609253 0.998142 306.367 57.0559)"/>
</clipPath>
<clipPath id="clip6_200_4">
<rect width="23.507" height="22.7741" fill="white" transform="matrix(-0.906386 -0.42245 -0.422786 0.906229 369.803 58.1548)"/>
</clipPath>
<clipPath id="clip7_200_4">
<rect width="33.3415" height="29.0354" fill="white" transform="matrix(-0.906386 -0.42245 -0.422786 0.906229 369.781 72.1067)"/>
</clipPath>
<clipPath id="clip8_200_4">
<rect width="34.0144" height="28.4988" fill="white" transform="matrix(-0.79748 -0.603345 -0.561435 0.827521 363.025 90.2987)"/>
</clipPath>
<clipPath id="clip9_200_4">
<rect width="30.2367" height="25.8882" fill="white" transform="matrix(0.99026 0.139231 -0.139115 0.990276 295.033 69.5069)"/>
</clipPath>
<clipPath id="clip10_200_4">
<rect width="32.045" height="24.6607" fill="white" transform="matrix(-0.647893 -0.761731 -0.665608 0.746301 348.885 105.46)"/>
</clipPath>
</defs>
</svg>
